<?xml version="1.0" encoding="us-ascii" standalone="no"?><svg xmlns="http://www.w3.org/2000/svg" xmlns:xlink="http://www.w3.org/1999/xlink" contentStyleType="text/css" height="208px" preserveAspectRatio="none" style="width:2402px;height:208px;background:#FFFFFF;" version="1.1" viewBox="0 0 2402 208" width="2402px" zoomAndPan="magnify"><defs/><g><!--cluster V?deosON - VO--><g id="cluster_V&#237;deosON - VO"><rect fill="none" height="95" rx="2.5" ry="2.5" style="stroke:#181818;stroke-width:1.0;" width="1497" x="7" y="107.5"/><text fill="#000000" font-family="sans-serif" font-size="14" font-weight="bold" lengthAdjust="spacing" textLength="102" x="704.5" y="124.0332">V&#237;deosON - VO</text></g><g id="elem_RF1"><ellipse cx="527.0408" cy="165.2082" fill="#F1F1F1" rx="86.5408" ry="19.7082" style="stroke:#181818;stroke-width:0.5;"/><text fill="#000000" font-family="sans-serif" font-size="14" lengthAdjust="spacing" textLength="130" x="462.0408" y="168.9367">Cadastro de Usu&#225;rio</text></g><g id="elem_RF2"><ellipse cx="961.8193" cy="164.9639" fill="#F1F1F1" rx="87.8193" ry="19.9639" style="stroke:#181818;stroke-width:0.5;"/><text fill="#000000" font-family="sans-serif" font-size="14" lengthAdjust="spacing" textLength="133" x="895.3193" y="168.6924">Login e Autentica&#231;&#227;o</text></g><g id="elem_RF3"><ellipse cx="319.7698" cy="164.954" fill="#F1F1F1" rx="85.2698" ry="19.454" style="stroke:#181818;stroke-width:0.5;"/><text fill="#000000" font-family="sans-serif" font-size="14" lengthAdjust="spacing" textLength="127" x="256.2698" y="168.6825">Consumo de V&#237;deos</text></g><g id="elem_RF4"><ellipse cx="744.1904" cy="164.9381" fill="#F1F1F1" rx="95.1904" ry="21.4381" style="stroke:#181818;stroke-width:0.5;"/><text fill="#000000" font-family="sans-serif" font-size="14" lengthAdjust="spacing" textLength="150" x="669.1904" y="168.6666">Controle de Interrup&#231;&#227;o</text></g><g id="elem_RF5"><ellipse cx="1179.813" cy="164.7626" fill="#F1F1F1" rx="94.313" ry="21.2626" style="stroke:#181818;stroke-width:0.5;"/><text fill="#000000" font-family="sans-serif" font-size="14" lengthAdjust="spacing" textLength="148" x="1105.813" y="168.4911">Verifica&#231;&#227;o de Hist&#243;rico</text></g><g id="elem_RF6"><ellipse cx="111.2471" cy="165.0494" fill="#F1F1F1" rx="88.2471" ry="20.0494" style="stroke:#181818;stroke-width:0.5;"/><text fill="#000000" font-family="sans-serif" font-size="14" lengthAdjust="spacing" textLength="134" x="44.2471" y="168.7779">Consulta de Hist&#243;rico</text></g><g id="elem_RF7"><ellipse cx="1399.105" cy="165.221" fill="#F1F1F1" rx="89.105" ry="20.221" style="stroke:#181818;stroke-width:0.5;"/><text fill="#000000" font-family="sans-serif" font-size="14" lengthAdjust="spacing" textLength="136" x="1331.105" y="168.9495">Publica&#231;&#227;o de V&#237;deos</text></g><!--entity Usuario--><g id="elem_Usuario"><ellipse cx="636" cy="14" fill="#F1F1F1" rx="8" ry="8" style="stroke:#181818;stroke-width:0.5;"/><path d="M636,22 L636,49 M623,30 L649,30 M636,49 L623,64 M636,49 L649,64 " fill="none" style="stroke:#181818;stroke-width:0.5;"/><text fill="#000000" font-family="sans-serif" font-size="14" lengthAdjust="spacing" textLength="48" x="612" y="80.0332">Usuario</text></g><!--entity Administrador--><g id="elem_Administrador"><ellipse cx="1399" cy="14" fill="#F1F1F1" rx="8" ry="8" style="stroke:#181818;stroke-width:0.5;"/><path d="M1399,22 L1399,49 M1386,30 L1412,30 M1399,49 L1386,64 M1399,49 L1412,64 " fill="none" style="stroke:#181818;stroke-width:0.5;"/><text fill="#000000" font-family="sans-serif" font-size="14" lengthAdjust="spacing" textLength="87" x="1355.5" y="80.0332">Administrador</text></g><g id="elem_GMN19"><path d="M1523.5,152 L1523.5,178.3516 L1806.5,178.3516 L1806.5,162 L1796.5,152 L1523.5,152 " fill="#FEFFDD" style="stroke:#181818;stroke-width:0.5;"/><path d="M1796.5,152 L1796.5,162 L1806.5,162 L1796.5,152 " fill="#FEFFDD" style="stroke:#181818;stroke-width:1.0;"/><text fill="#000000" font-family="sans-serif" font-size="13" lengthAdjust="spacing" textLength="262" x="1529.5" y="170.4951">Se v&#237;deo j&#225; foi consumido, informar o usu&#225;rio.</text></g><g id="elem_GMN22"><path d="M1842,152 L1842,178.3516 L2034,178.3516 L2034,162 L2024,152 L1842,152 " fill="#FEFFDD" style="stroke:#181818;stroke-width:0.5;"/><path d="M2024,152 L2024,162 L2034,162 L2024,152 " fill="#FEFFDD" style="stroke:#181818;stroke-width:1.0;"/><text fill="#000000" font-family="sans-serif" font-size="13" lengthAdjust="spacing" textLength="171" x="1848" y="170.4951">Valida&#231;&#227;o de usu&#225;rio e senha</text></g><g id="elem_GMN25"><path d="M2069,152 L2069,178.3516 L2395,178.3516 L2395,162 L2385,152 L2069,152 " fill="#FEFFDD" style="stroke:#181818;stroke-width:0.5;"/><path d="M2385,152 L2385,162 L2395,162 L2385,152 " fill="#FEFFDD" style="stroke:#181818;stroke-width:1.0;"/><text fill="#000000" font-family="sans-serif" font-size="13" lengthAdjust="spacing" textLength="305" x="2075" y="170.4951">Pode ser interrup&#231;&#227;o manual ou por falha do sistema</text></g><!--link Usuario to RF1--><g id="link_Usuario_RF1"><path d="M611.81,71.8 C591.11,94.3 561.86,126.1 543.68,145.86 " fill="none" id="Usuario-RF1" style="stroke:#181818;stroke-width:1.0;"/></g><!--link Usuario to RF2--><g id="link_Usuario_RF2"><path d="M660.32,48.9 C701.87,55.27 788.65,70.99 857,99.5 C886.22,111.69 916.75,131.34 937.31,145.76 " fill="none" id="Usuario-RF2" style="stroke:#181818;stroke-width:1.0;"/></g><!--link Usuario to RF3--><g id="link_Usuario_RF3"><path d="M611.89,49.1 C571.57,55.66 488.42,71.54 423,99.5 C394.09,111.85 363.94,131.68 343.79,146.09 " fill="none" id="Usuario-RF3" style="stroke:#181818;stroke-width:1.0;"/></g><!--link Usuario to RF4--><g id="link_Usuario_RF4"><path d="M660.24,72.09 C680.01,93.79 707.54,123.99 725.55,143.76 " fill="none" id="Usuario-RF4" style="stroke:#181818;stroke-width:1.0;"/></g><!--link Usuario to RF5--><g id="link_Usuario_RF5"><path d="M660.15,45.21 C726.91,45.11 918.94,49.53 1068,99.5 C1099.06,109.91 1131.12,129.43 1152.94,144.27 " fill="none" id="Usuario-RF5" style="stroke:#181818;stroke-width:1.0;"/></g><!--link Usuario to RF6--><g id="link_Usuario_RF6"><path d="M611.57,45.15 C545.8,44.95 360.26,49.24 217,99.5 C186.51,110.2 155.36,130.5 134.79,145.48 " fill="none" id="Usuario-RF6" style="stroke:#181818;stroke-width:1.0;"/></g><!--link Administrador to RF7--><g id="link_Administrador_RF7"><path d="M1399,83.65 C1399,104.08 1399,128.36 1399,144.85 " fill="none" id="Administrador-RF7" style="stroke:#181818;stroke-width:1.0;"/></g><!--link RF5 to GMN19--><g id="link_RF5_GMN19"><path d="M1206.04,144.07 C1231.08,125.54 1270.86,100.13 1310.5,91.5 C1348.72,83.18 1448.13,83.91 1486.5,91.5 C1545.02,103.08 1608.46,134.09 1641.68,151.91 " fill="none" id="RF5-GMN19" style="stroke:#181818;stroke-width:1.0;stroke-dasharray:7.0,7.0;"/></g><!--link RF2 to GMN22--><g id="link_RF2_GMN22"><path d="M984.62,145.33 C1008,126.58 1046.49,99.99 1085.5,91.5 C1124.64,82.98 1767.36,82.98 1806.5,91.5 C1852.24,101.46 1898.31,133.43 1921.88,151.75 " fill="none" id="RF2-GMN22" style="stroke:#181818;stroke-width:1.0;stroke-dasharray:7.0,7.0;"/></g><!--link RF4 to GMN25--><g id="link_RF4_GMN25"><path d="M770.04,144.07 C795.08,125.54 834.86,100.13 874.5,91.5 C905.98,84.64 2002.79,85.79 2034.5,91.5 C2098.59,103.04 2169.04,134.07 2206.02,151.9 " fill="none" id="RF4-GMN25" style="stroke:#181818;stroke-width:1.0;stroke-dasharray:7.0,7.0;"/></g><!--SRC=[VP7BIiH044NtzHN5h28uWlDS3u8eY3CePb-cEvcMf6leXnlnOmONhbpv2VanEss2QHINjs_Tq_MWmh711-l9A0QAQYCQfPLrXWGR02CBHxgg9KxozaD8jjjRd6A-dU0BP1SaA9Go2jbXscFWd21PlBiyX-o6AwLHuiOxgPqgg7rltmP_5jAihMzYk6VttZnwWHk-3UQrTj8OVnZ75v3bqgXoe7PrLw7jzjEeOYXQzd_KZlxqLv3j_6CzPgIDhE4LeDyFJgTnh4JEKZbFvIALorIk8Ddrz-CQGBEJQ5IrTyXbZDrBV8vzuLDxn98L5d5rIl0fAbsoQSWWe-zFS0PI2-mulsapoAbMucVY8HGEPQNUqp_P1UnOT6Kc_3gw2JQaFTN87WzXa9BgVLWuemspoMP4_080]--></g></svg>